 <svg xmlns="http://www.w3.org/2000/svg" viewBox="0 0 50 50">
     <path d="M4.53,41.191l-4.237,4.236c-0.25,0.249-0.349,0.611-0.262,0.953s0.347,0.612,0.685,0.713l6.294,1.865C7.104,48.986,7.199,49,7.294,49c0.261,0,0.517-0.103,0.707-0.293l2.022-2.022L4.53,41.191z"/>
     <path d="M49.307,8.369l-6.459-6.458c-0.85-0.853-2.353-0.914-3.303-0.107L11.422,26.235l13.558,13.558l24.441-28.131C50.237,10.7,50.188,9.254,49.307,8.369z"/>
     <path d="M9.96,27.602l-3.374,3.373c-1.087,1.089-0.67,2.395-0.365,3.348l0.176,0.569c0.428,1.404,0.903,2.974-0.502,4.837l5.604,5.604c0.809-0.563,1.704-0.839,2.712-0.839c0.841,0,1.59,0.196,2.086,0.327l0.278,0.071c0.178,0.043,0.353,0.095,0.524,0.146c0.469,0.138,0.953,0.28,1.468,0.28c0.652,0,1.215-0.232,1.672-0.69l3.373-3.373L9.96,27.602z"/>
 </svg>