<svg xmlns="http://www.w3.org/2000/svg" viewBox="0,0,256,256">
    <g transform="translate(-33.28,-33.28) scale(1.26,1.26)">
        <g fill="#000000" fill-rule="nonzero" stroke="none" stroke-width="1" stroke-linecap="butt" stroke-linejoin="miter" stroke-miterlimit="10" stroke-dasharray="" stroke-dashoffset="0" font-family="none" font-size="none" style="mix-blend-mode: normal">
            <g transform="translate(-10.24,-12.288) scale(5.12,5.12)">
                <path d="M12.5,12c-1.11,0 -2.12992,0.40008 -2.91992,1.08008l12.32031,11.69922c1.74,1.65 4.45922,1.65 6.19922,0l12.32031,-11.69922c-0.79,-0.68 -1.80992,-1.08008 -2.91992,-1.08008zM8.90039,13.81055c-0.57,0.75 -0.90039,1.67945 -0.90039,2.68945v17c0,2.48 2.02,4.5 4.5,4.5h18.35938c-0.24,-0.8 -0.35937,-1.63 -0.35937,-2.5c0,-4.97 4.03,-9 9,-9c0.87,0 1.7,0.11938 2.5,0.35938v-10.35937c0,-1.01 -0.33039,-1.93945 -0.90039,-2.68945l-12.31055,11.69922c-1.06,1 -2.42906,1.50977 -3.78906,1.50977c-1.36,0 -2.72906,-0.50977 -3.78906,-1.50977zM39.5,28c-4.142,0 -7.5,3.358 -7.5,7.5c0,4.142 3.358,7.5 7.5,7.5c4.142,0 7.5,-3.358 7.5,-7.5c0,-4.142 -3.358,-7.5 -7.5,-7.5zM39.5,31c0.276,0 0.5,0.224 0.5,0.5v3.5h3.5c0.276,0 0.5,0.224 0.5,0.5c0,0.276 -0.224,0.5 -0.5,0.5h-3.5v3.5c0,0.276 -0.224,0.5 -0.5,0.5c-0.276,0 -0.5,-0.224 -0.5,-0.5v-3.5h-3.5c-0.276,0 -0.5,-0.224 -0.5,-0.5c0,-0.276 0.224,-0.5 0.5,-0.5h3.5v-3.5c0,-0.276 0.224,-0.5 0.5,-0.5z">
                </path>
            </g>
        </g>
    </g>
</svg>