<svg xmlns="http://www.w3.org/2000/svg" viewBox="0 0 32 32">
    <path d="M 9 7 C 4.0414839 7 0 11.041484 0 16 L 0 17 L 0.203125 17 C 0.7247386 21.467568 4.3958921 25 9 25 L 23 25 C 27.604108 25 31.275261 21.467568 31.796875 17 L 32 17 L 32 16 C 32 11.041484 27.958516 7 23 7 L 9 7 z M 16 9 C 19.877838 9 23 12.122162 23 16 C 23 19.877838 19.877838 23 16 23 C 12.122162 23 9 19.877838 9 16 C 9 12.122162 12.122162 9 16 9 z M 21.642578 9 L 23 9 C 26.877484 9 30 12.122516 30 16 C 30 19.877484 26.877484 23 23 23 L 21.642578 23 C 23.687339 21.348117 25 18.824258 25 16 C 25 13.175742 23.687339 10.651883 21.642578 9 z"/>
</svg>